<?xml version="1.0" encoding="utf-8"?>
<!-- Generator: Adobe Illustrator 22.1.0, SVG Export Plug-In . SVG Version: 6.00 Build 0)  -->
<svg version="1.1" id="Layer_1" xmlns="http://www.w3.org/2000/svg" xmlns:xlink="http://www.w3.org/1999/xlink" x="0px" y="0px"
	 width="2000px" height="2000px" viewBox="0 0 2000 2000" style="enable-background:new 0 0 2000 2000;" xml:space="preserve">
<style type="text/css">
	.st0{fill:#FFFFFF;}
	.st1{fill:#DFE4EF;}
	.st2{fill:url(#SVGID_1_);}
	.st3{fill:#3063A0;}
	.st4{fill:#284E7C;}
	.st5{fill:url(#SVGID_2_);}
	.st6{fill:#DD4A63;}
	.st7{fill:url(#SVGID_3_);}
	.st8{fill:url(#SVGID_4_);}
	.st9{fill:url(#SVGID_5_);}
	.st10{fill:#6C9BD3;}
	.st11{fill:#8FBAE5;}
	.st12{fill:#426DB2;}
	.st13{fill:#304482;}
	.st14{fill:#ECECEC;}
	.st15{fill:#061733;}
	.st16{fill:#AD1A41;}
	.st17{fill:url(#SVGID_6_);}
	.st18{fill:#FF905E;}
	.st19{fill:url(#SVGID_7_);}
	.st20{fill:#859FD6;}
	.st21{fill:url(#SVGID_8_);}
	.st22{fill:#5A83CC;}
	.st23{fill:url(#SVGID_9_);}
	.st24{fill:#4969BA;}
	.st25{fill:url(#SVGID_10_);}
	.st26{fill:#112849;}
</style>
<g>
	<rect class="st0" width="2000" height="2000"/>
	<g>
		<g>
			<path class="st1" d="M1805.6,1076.5c-5.8-13-11.8-25.9-17.4-39c-0.5-1.2-0.9-2.7-1.6-3.8c-1-2.4-1.9-4.7-2.9-7.1
				c-2.6-6.6-5-13.3-7.2-20c-4.2-12.9-7.3-26.1-9.5-39.5c0.1,0.7-0.5-3.3-0.6-4.5c-0.3-3-0.6-6.1-0.8-9.1
				c-0.5-7.6-0.7-15.2-0.7-22.8c0-6.6,0.3-13.2,0.8-19.8c0.2-3.6,0.5-7.1,0.9-10.7c0.2-1.5,0.3-3.1,0.5-4.6c0.1-0.9,0.7-5.2,0.6-4.5
				c0.3-1.8,0.5-3.5,0.6-4.1c0.5-3.1,1-6.1,1.6-9.1c1.4-7.6,3-15.2,4.9-22.8c6.7-28,15.7-55.4,26-82.2c2.6-6.8,5.3-13.6,8.1-20.4
				c0.9-2.2,3.5-6.2,3.6-8.6c0.6-1.4,1.2-2.8,1.8-4.2c5.7-13.2,11.6-26.3,17.5-39.5c46.7-104.6,95.2-214.7,75.6-331.9
				c-15.3-91.6-78.8-185.4-174.3-205.4c-64.6-13.5-127.1,5.6-188.8,23c-28.4,8-57.1,14.9-86,20.4c-14.8,2.8-29.6,5.3-44.4,7.5
				c-2.4,0.4-5.4,0.4-7.9,0.9c-1,0.2-2.7,0.5-3.7,0.7c-7.8,1-15.6,1.8-23.4,2.6c-59.2,5.9-119,6.7-178.4,2.3
				c-15-1.1-29.9-2.5-44.8-4.3c-2.6-0.3-5.3-0.6-7.9-1c0,0,0.1,0,0.1,0c0,0-0.1,0-0.1,0c-0.5-0.1-1.1-0.1-1.6-0.2
				c-0.6-0.1-1.1-0.2-1.6-0.3c-0.6,0-1.1-0.1-1.5-0.1c-7.4-1.1-14.9-2.2-22.3-3.4c-29.4-4.9-58.6-11.2-87.6-18.3
				c-116.3-28.7-229.4-71.4-348.4-88.5c-115.8-16.6-238.5-12.3-342.7,46.7c-85.2,48.2-157.2,132.7-170.8,232
				c-7.4,54.2,0,107.9,15.9,160c14.4,47.1,34.2,92.3,50.5,138.7c8.2,23.3,15.6,47,20.8,71.2c1.2,5.5,2.3,11.1,3.2,16.7
				c0.2,1.1,0.8,5.6,1.1,7c0.1,1,0.2,1.9,0.3,2.4c1.3,12.1,1.8,24.3,1.5,36.5c-0.2,5.9-0.5,11.7-1.1,17.6c-0.1,0.8-0.2,1.6-0.3,2.4
				c-0.7,3.2-1,6.6-1.6,9.8c-2.3,12.3-5.5,24.5-9.3,36.4c-2,6.2-4.1,12.3-6.5,18.4c-1,2.6-2,5.2-3.1,7.8c-0.5,1.3-1.1,2.6-1.6,3.9
				c0.1-0.4,0.3-0.7,0.4-1.1c-5.3,12.1-11.2,23.9-17.3,35.5c-24.5,46.4-54.1,89.8-79.3,135.7c-25,45.5-45.3,95.5-52.9,147
				c-8.2,55.1-4.4,111.3,23.3,160.9c22.9,41.1,60.6,70.5,99.8,95.1c17,10.6,34.4,20.4,51.5,30.8c8.6,5.2,17.1,10.4,25.3,16
				c3.8,2.5,7.5,5.1,11.2,7.8c0.5,0.3,0.9,0.7,1.4,1.1c1.3,1,2.6,2,3.8,3.1c7,5.8,13.6,12.1,19.7,18.8c1.3,1.5,2.6,3,3.9,4.6
				c2.5,3.6,4.9,7.2,7.1,10.9c0.8,1.4,2.2,3.4,3.5,5.6c0.1,0.3,0.3,0.8,0.6,1.7c0.3,1,0.7,1.9,1.1,2.9c1.2,3.2,2.2,6.5,3.1,9.8
				c0.7,2.7,1.4,5.5,1.9,8.3c0.2,0.8,0.3,1.6,0.4,2.4c-0.2,6.1,1.2,12.7,1.3,18.8c0.5,27-3.3,53.9-3.5,80.9
				c-0.2,31.3,5.1,61.8,19,89.9c24.1,48.9,75.1,82,126.4,96.3c59.9,16.7,122.4,9.1,182.9,1c62.1-8.3,124.1-16.7,186.2-25
				c11.4-1.5,22.8-3.1,34.2-4.6c85.9-11.5,172.9-10.7,258.7,1.6c45.7,6.6,91.7,11.1,137.7,13.8c61.8,3.5,124.8,5.1,185.6-7.8
				c53.2-11.3,106.9-37.4,142.9-79.2c36-41.8,51-92.5,53.1-147c1.8-45.8-5.2-91.3-6.4-137c-0.3-11.1-0.2-22.3,0.5-33.4
				c0.3-4.4,0.7-8.9,1.2-13.3c0.5-2.9,1-5.7,1.6-8.6c1-4.8,2.2-9.5,3.6-14.2c0.7-2.5,1.6-5,2.4-7.5c0.2-0.6,0.7-1.8,1.1-3
				c0.5-1.2,1.2-2.8,1.6-3.4c1.2-2.4,2.4-4.7,3.7-7c2.7-4.7,6-9,8.8-13.5c-0.5,0.8-1,1.5-1.4,2.2c0.5-0.7,1-1.4,1.5-1.9
				c1.9-2.1,3.8-4.2,5.8-6.2c4-4,8.2-7.9,12.6-11.5c0.4-0.3,1.4-1.2,2.5-2c1.2-0.9,2.9-2.2,3.5-2.6c5-3.6,10.1-7.1,15.2-10.6
				c20.8-14.1,42.2-28,60.2-45.7c20.7-20.3,36.4-46.2,43.2-74.5c7.4-31,5.9-62.6-0.3-93.6
				C1829.2,1130.7,1817.5,1103.4,1805.6,1076.5z M1811.2,746.6c0.3-0.7,0.6-1.5,1-2.2C1811.5,746.1,1809.7,750.2,1811.2,746.6z
				 M342.7,1583.7c1.2,2.1,2.2,4.2,2.3,5.8C345,1589.5,343.4,1585.3,342.7,1583.7z M1406,214.8c-0.5,0.1-1,0.1-1.5,0.2
				C1406.3,214.6,1413.5,213.9,1406,214.8z"/>
			<path class="st1" d="M1690.9,1408.4C1689,1411,1687.4,1413.8,1690.9,1408.4L1690.9,1408.4z"/>
			<path class="st1" d="M1147.6,214.9c-4.4-2.2-5.6-1.2-3.2-0.5C1145.5,214.5,1146.8,214.5,1147.6,214.9
				C1147.6,214.9,1147.6,214.9,1147.6,214.9z"/>
			<path class="st1" d="M241.5,910.4C241.5,910.3,241.5,910.3,241.5,910.4C242.6,908,244.7,901.6,241.5,910.4z"/>
		</g>
		<linearGradient id="SVGID_1_" gradientUnits="userSpaceOnUse" x1="681.5689" y1="692.3499" x2="681.5689" y2="915.2458">
			<stop  offset="0" style="stop-color:#DD4A63"/>
			<stop  offset="1" style="stop-color:#CC2348"/>
		</linearGradient>
		<path class="st2" d="M876.6,669.4c-4.6-15.2-15.5-27.5-29.7-34.6c-14.3-7.2-30.7-8.4-46-4.1c-16.3,4.6-29.4,14.9-39.8,28
			c-4.9,6.2-9.7,12.9-16.1,17.7c-7.1,5.3-15.4,6.3-24,6.1c-14.1-0.3-30.9-3.5-41.7,8.2c-8.7,9.5-9.3,26-20.2,33.3
			c-12.2,8.2-26.8-5.1-37.3-10.3c-12.1-6-23.7-5.6-33.3,4.6c-5,5.3-8.8,11.9-14.6,16.5c-7.4,5.9-17.1,6.1-26.2,6.4
			c-8.2,0.2-16.3,0.5-24,3.6c-7.1,2.9-13.2,7.6-18.3,13.3c-11.4,13-16.1,29.8-17.6,46.7c-0.6,6.7-0.7,13.5-0.7,20.2
			c-2.7-0.6-4.9,3.3-2.1,4.5c0.7,0.3,1.4,0.6,2.1,0.9c0,1.2,0,2.5,0,3.7c0,3.2,5,3.2,5,0c0-0.5,0-1.1,0-1.6
			c70.2,28.5,148.3,38.8,223.3,27.4c37.1-5.7,71.5-19.1,98-46.3c12.3-12.6,22.7-27,32.2-41.7c10.2-15.8,20.5-32,27.2-49.6
			C879.2,705.6,881.9,686.7,876.6,669.4z"/>
		<g>
			<path class="st3" d="M1404.5,215c0.5-0.1,1-0.1,1.5-0.2C1413.5,213.9,1406.3,214.6,1404.5,215z"/>
			<path class="st3" d="M1733.1,162.7c-64.6-13.5-127.1,5.6-188.8,23c-28.4,8-57.1,14.9-86,20.4c-14.8,2.8-29.6,5.3-44.4,7.5
				c-2.4,0.4-5.4,0.4-7.9,0.9c-1,0.2-2.7,0.5-3.7,0.7c-7.8,1-15.6,1.8-23.4,2.6c-59.2,5.9-119,6.7-178.4,2.3
				c-8.3-0.6-16.6-1.3-24.9-2.2c-0.5,7.4,0.6,14.9,3.4,21.7c13.2,32.5,48.2,44.4,79.7,51c17.5,3.7,35.7,6.6,51.9,14.7
				c16.4,8.2,27.6,21.8,35.9,37.9c15.5,30.1,23.5,67.1,55,85.3c13,7.6,28.2,8.9,42.1,3.1c13.6-5.7,24.3-16.4,35.7-25.5
				c12.8-10.2,27.6-18.4,44.6-14.6c17.4,3.9,31.3,17.2,43,29.9c12.2,13.3,23.1,27.6,38,38.2c13.6,9.7,30.8,16.4,47.5,10.9
				c16.8-5.5,26.6-20.9,37.1-34c10.8-13.5,27.8-28.1,45.9-19.3c13.9,6.8,22,21.6,33.7,31.2c12.8,10.5,28.9,13.5,45.1,11.2
				c17.9-2.6,34.8-10.6,50.5-19.3c15.9-8.9,31.6-18.3,47.3-27.6c-0.4-14.8-1.8-29.7-4.3-44.7
				C1892.1,276.6,1828.6,182.7,1733.1,162.7z M1406,214.8c-0.5,0.1-1,0.1-1.5,0.2C1406.3,214.6,1413.5,213.9,1406,214.8z"/>
		</g>
		<g>
			<path class="st1" d="M1690.9,1408.4C1689,1411,1687.4,1413.8,1690.9,1408.4L1690.9,1408.4z"/>
			<path class="st1" d="M1147.6,214.9c-4.4-2.2-5.6-1.2-3.2-0.5C1145.5,214.5,1146.8,214.5,1147.6,214.9
				C1147.6,214.9,1147.6,214.9,1147.6,214.9z"/>
			<path class="st1" d="M241.5,910.4C241.5,910.3,241.5,910.3,241.5,910.4C242.6,908,244.7,901.6,241.5,910.4z"/>
			<path class="st4" d="M1536.9,1583.7c0,0-90.1-961.7-47.9-1383.9c-10.2,2.3-20.5,4.4-30.8,6.4c-12.4,2.4-24.9,4.5-37.4,6.4
				l-45.9,1371.1H1536.9z"/>
		</g>
		<linearGradient id="SVGID_2_" gradientUnits="userSpaceOnUse" x1="1374.8566" y1="795.097" x2="1374.8566" y2="951.1754">
			<stop  offset="0" style="stop-color:#DD4A63"/>
			<stop  offset="1" style="stop-color:#CC2348"/>
		</linearGradient>
		<path class="st5" d="M1582.6,823.2c-10.9-11.2-25.5-17.9-39.6-24.3c-18.8-8.5-37.6-17.6-56.7-25.4c-16.1-6.6-33-9-48,1.6
			c-13.5,9.6-23.7,26.3-41.2,29.1c-16.5,2.7-23.4-13.9-32.7-24c-7.7-8.4-19-11.3-28.3-3.4c-10.2,8.7-13.4,23.8-26.2,29.7
			c-14.4,6.6-32.1,1.1-47.1,0.4c-15.8-0.7-29.9,3.8-40.6,15.7c-24.1,26.8-18.8,68.8-44.9,94c-4.1,4-8.9,7.2-14.2,9.3
			c-1.4-0.1-2.7-0.3-4.1-0.4c-1.6-0.2-2.4,1-2.4,2.2c-0.5,0.1-1,0.2-1.5,0.2c-3.1,0.4-3.2,5.4,0,5c3.1-0.4,5.9-1.1,8.6-2
			c82.9,8.6,166.4,10.7,249.5,5.9c21.3-1.2,42.7-2.9,64-5c18.3-1.8,36.9-3.4,54.7-8c30.2-7.7,60.1-27.7,64.3-61
			C1598.3,848,1593,833.8,1582.6,823.2z"/>
		<path class="st6" d="M751.6,710.4c-3.7-16.3-7.4-32.8-11.5-49.2c4.1,1.3,8.4-0.2,10.8-4.1c2.8-4.6,1.6-10.4-2.4-14
			c-3.9-3.5-9.1-4.1-13.9-2.9c-0.9-3.3-1.8-6.6-2.8-9.9c0.8,0.5,1.7,1,2.7,1.3c5.6,2.1,12.8,0.5,15.6-5.2c2.8-5.8-0.3-12.5-5.4-15.7
			c-5.9-3.7-12.8-2.9-19.3-1.5c0,0-0.1,0-0.1,0c-1.8-5.3-3.6-10.6-5.5-15.9c2.8,2.3,6,4,9.8,4.8c6.5,1.3,13.4-1.3,16.1-7.6
			c7.7-17.9-22.3-17.2-31.8-18.1c-0.9-0.1-1.6,0.3-2.1,0.8c-2.5-5.8-5-11.5-7.8-17.1c4.5,3.8,9.7,6.7,15.9,6.5
			c6.8-0.2,12.9-5.1,13-12.2c0.1-6.8-5.7-10.5-12-10.8c-7.7-0.3-15.5,2.4-22.2,6.3c-1.9-3.6-3.8-7.1-5.9-10.6
			c5.4-0.1,10.8-1.3,15.8-3.7c4.3-2.1,9.1-6.6,6.4-11.8c-2.6-4.9-9.1-3.8-13.5-2.6c-5.5,1.6-10.4,4.3-14.8,8
			c-3-4.8-6.2-9.4-9.5-14.1c4.9,0.3,9.7-0.7,14.1-3.2c5.3-3,9.5-10.1,4.5-15.4c-4.4-4.6-12.3-4.4-17.8-2.2
			c-4.4,1.7-7.9,4.7-10.3,8.5c-2.2-2.6-4.4-5.2-6.7-7.8c5.6,0.1,11.3-0.8,15.3-5.2c4.8-5.2,4-12.9-1.2-17.5
			c-5.3-4.6-13.1-3.9-18.4,0.4c-3.7,3-5.6,7-6.2,11.3c-3.3-3.2-6.7-6.4-10.3-9.4c-0.7-7.7-2-16-8.2-21.3c-5-4.3-13-5.2-18-0.4
			c-4.8,4.6-4,12.3-0.2,17.2c5.5,7.2,15.4,10.6,24.1,11.6c0.9,0.1,1.6-0.2,2.1-0.7c3.3,3,6.5,6,9.6,9.1c-6.4-0.8-14.1-1.3-19.7,2
			c-5,2.9-6.6,8.9-3.5,13.8c3.4,5.4,9.9,6.7,15.7,4.5c6.5-2.5,10.2-8.4,13.4-14.3c2.9,3.2,5.7,6.4,8.4,9.7
			c-7.5,4.6-21.2,16.1-11.6,23.9c3.8,3.1,9.3,2.6,13-0.4c4.3-3.5,5.5-8.9,5.9-14.2c4,5.3,7.7,10.8,11.3,16.4
			c-6.7-0.8-13.8-0.8-19.2,3.8c-4.4,3.7-6.1,10.6-2.7,15.6c3.7,5.3,11.1,4.9,16.3,2.2c5.4-2.7,9.1-7.8,10.6-13.5
			c2.4,4.1,4.7,8.2,6.9,12.3c-7.1,6.8-24.1,26.4-8.1,32.1c5.9,2.1,11.9-1.2,14.7-6.4c1.4-2.7,2-5.5,2-8.3c1.5,3.4,3,6.7,4.5,10.2
			c-0.9,0.4-1.5,1.2-1.2,2.4c1.6,7.7-7.4,12.1-8.9,19.1c-1,4.9,1,10,6.2,11.3c4.8,1.2,9.5-1.5,11.7-5.7c0.6-1.2,1.1-2.5,1.3-3.8
			c1.4,4,2.8,8,4.2,12c-0.2,0.3-0.3,0.6-0.4,0.9c-8.1,6-24.4,18.6-11.5,25.7c4.5,2.4,9.9,1.1,13.2-2.7c2.2-2.5,3.2-5.4,3.6-8.5
			c1.5,5,2.9,9.9,4.3,14.9c-0.4,0.2-0.8,0.5-1,1c-5.5,1.1-11.3,2.6-14.5,7.6c-2.6,4.1-2.7,10.1,1.4,13.4c3.9,3,9.6,1.7,13.1-1.3
			c2.3-1.9,3.5-4.5,4.2-7.2c0.2,0.5,0.5,1,0.8,1.5c4.7,18.2,8.8,36.6,12.9,55C747.3,714,752.3,713.5,751.6,710.4z"/>
		<path class="st6" d="M1537.8,831.7c4.1-18.4,8.3-36.7,12.9-55c0.3-0.5,0.5-1,0.8-1.5c0.7,2.7,1.9,5.3,4.2,7.2
			c3.5,3,9.2,4.4,13.1,1.3c4.2-3.2,4-9.2,1.4-13.4c-3.1-5-9-6.5-14.5-7.6c-0.2-0.4-0.6-0.8-1-1c1.4-5,2.8-9.9,4.3-14.9
			c0.4,3,1.4,6,3.6,8.5c3.3,3.8,8.7,5.1,13.2,2.7c12.9-7.1-3.4-19.6-11.5-25.7c0-0.3-0.2-0.6-0.4-0.9c1.3-4,2.7-8,4.2-12
			c0.3,1.3,0.7,2.5,1.3,3.8c2.2,4.2,6.9,6.9,11.7,5.7c5.2-1.3,7.3-6.4,6.2-11.3c-1.5-7-10.5-11.4-8.9-19.1c0.3-1.2-0.3-2-1.2-2.4
			c1.5-3.4,3-6.8,4.5-10.2c0,2.8,0.6,5.7,2,8.3c2.8,5.3,8.8,8.5,14.7,6.4c16-5.7-1-25.3-8.1-32.1c2.2-4.2,4.5-8.3,6.9-12.3
			c1.4,5.7,5.2,10.8,10.6,13.5c5.2,2.7,12.6,3.1,16.3-2.2c3.5-5,1.7-11.9-2.7-15.6c-5.4-4.6-12.5-4.6-19.2-3.8
			c3.6-5.6,7.3-11.1,11.3-16.4c0.4,5.3,1.5,10.7,5.9,14.2c3.7,3,9.1,3.6,13,0.4c9.6-7.8-4.1-19.3-11.6-23.9c2.7-3.3,5.5-6.5,8.4-9.7
			c3.1,5.9,6.9,11.7,13.4,14.3c5.7,2.2,12.3,0.9,15.7-4.5c3.1-5,1.5-10.9-3.5-13.8c-5.6-3.3-13.3-2.8-19.7-2
			c3.1-3.1,6.3-6.2,9.6-9.1c0.5,0.5,1.2,0.8,2.1,0.7c8.7-1,18.6-4.3,24.1-11.6c3.8-5,4.7-12.6-0.2-17.2c-5-4.8-13-3.9-18,0.4
			c-6.2,5.3-7.6,13.6-8.2,21.3c-3.5,3-6.9,6.2-10.3,9.4c-0.6-4.3-2.5-8.3-6.2-11.3c-5.3-4.3-13-5-18.4-0.4c-5.3,4.6-6,12.3-1.2,17.5
			c4,4.4,9.7,5.3,15.3,5.2c-2.3,2.5-4.5,5.1-6.7,7.8c-2.4-3.8-5.9-6.8-10.3-8.5c-5.5-2.2-13.4-2.4-17.8,2.2
			c-5,5.3-0.8,12.3,4.5,15.4c4.3,2.5,9.2,3.4,14.1,3.2c-3.3,4.6-6.5,9.3-9.5,14.1c-4.3-3.6-9.2-6.4-14.8-8c-4.4-1.2-11-2.3-13.5,2.6
			c-2.7,5.2,2.1,9.7,6.4,11.8c5,2.4,10.3,3.6,15.8,3.7c-2,3.5-4,7-5.9,10.6c-6.7-3.8-14.5-6.6-22.2-6.3c-6.3,0.3-12.1,4-12,10.8
			c0.1,7.1,6.3,12,13,12.2c6.2,0.2,11.3-2.7,15.9-6.5c-2.7,5.6-5.3,11.3-7.8,17.1c-0.5-0.5-1.2-0.9-2.1-0.8
			c-9.5,0.8-39.5,0.2-31.8,18.1c2.7,6.3,9.6,8.9,16.1,7.6c3.8-0.7,7-2.5,9.8-4.8c-1.9,5.3-3.8,10.6-5.5,15.9c0,0-0.1,0-0.1,0
			c-6.5-1.4-13.4-2.2-19.3,1.5c-5.1,3.2-8.2,9.9-5.4,15.7c2.8,5.7,10,7.4,15.6,5.2c1-0.4,1.9-0.8,2.7-1.3c-0.9,3.3-1.9,6.6-2.8,9.9
			c-4.8-1.1-10-0.6-13.9,2.9c-4,3.6-5.2,9.3-2.4,14c2.4,3.9,6.8,5.4,10.8,4.1c-4.1,16.4-7.8,32.9-11.5,49.2
			C1532.1,834.3,1537.1,834.8,1537.8,831.7z"/>
		<g>
			<path class="st3" d="M222.4,408.3c16.1,7.5,35.7,4.1,50.9-4.1c19.5-10.5,33.1-29,48-44.8c15.3-16.2,35.8-33,59.5-31.4
				c22,1.5,37.6,19.4,51.6,34.5c13.9,15.1,31.2,31.4,52.9,32.6c15.4,0.9,28.5-7.8,36.3-20.7c7.8-12.9,11.1-28.1,15.6-42.3
				c4.4-13.8,10.1-29.1,22.7-37.4c20.3-13.4,46.2-2.5,65.1,8c19.4,10.8,40.7,24.9,64,22.3c33.7-3.7,47.3-39.4,66.1-62.4
				c10.9-13.4,24.9-23.2,42.9-22.3c22.4,1.1,42.1,15.6,62.1,24.1c44.9,19.1,91.6,2.3,132.9-18c24-11.7,53.1-25.4,71.8-46.6
				c-10.6-2.3-21.1-4.8-31.6-7.4c-116.3-28.7-229.4-71.4-348.4-88.5c-115.8-16.6-238.5-12.3-342.7,46.7
				c-62.7,35.5-118.3,90.7-148.7,156.9c0.7,1.5,1.3,3.1,1.9,4.8C204.5,342.8,185.5,391.3,222.4,408.3z"/>
		</g>
		<g>
			<path class="st1" d="M1690.9,1408.4C1689,1411,1687.4,1413.8,1690.9,1408.4L1690.9,1408.4z"/>
			<path class="st1" d="M1147.6,214.9c-4.4-2.2-5.6-1.2-3.2-0.5C1145.5,214.5,1146.8,214.5,1147.6,214.9
				C1147.6,214.9,1147.6,214.9,1147.6,214.9z"/>
			<path class="st1" d="M241.5,910.4C241.5,910.3,241.5,910.3,241.5,910.4C242.6,908,244.7,901.6,241.5,910.4z"/>
			<path class="st4" d="M580.4,1433.5L552,96c-47.3,1.6-94.1,8.6-138.8,23.3L357.8,1458L580.4,1433.5z"/>
		</g>
		<linearGradient id="SVGID_3_" gradientUnits="userSpaceOnUse" x1="1494.3573" y1="765.8965" x2="1494.3573" y2="919.0704">
			<stop  offset="0" style="stop-color:#568CCC"/>
			<stop  offset="1" style="stop-color:#4274BC"/>
		</linearGradient>
		<path class="st7" d="M1732.9,947.1c-5.4-21.5,8.7-50.6-10.9-67.8c-14.9-13-34.9-2.4-50.6,3c-8.6,3-18.6,5.9-27.2,1.4
			c-8.3-4.3-11.6-13.5-14.1-21.9c-4.3-14.7-7.9-35-26.4-37.4c-18.5-2.4-32.8,15.1-49.3,20.2c-22,6.9-29.8-15.9-39.9-30.2
			c-5.1-7.3-11.8-13.5-21-14.8c-9.9-1.4-19.4,3.4-26.5,9.9c-19.7,18.2-15.6,47.5-30,68.6c-6.8,9.9-19.3,19.4-31.9,15.4
			c-8.7-2.7-13.7-10.6-17.3-18.4c-6.5-13.9-10.2-33.1-25.2-40.6c-22.6-11.3-41.6,13.1-52.1,29.7c-6.3,10-13.1,21-24.1,26.3
			c-11.7,5.6-25.2,2-37.6,3.9c-23.2,3.4-30.4,28.2-22.4,47.9c4.6,11.5,12.9,21,21,30.2c0.6,0.7,1.4,0.9,2.1,0.7
			c0.3,0.5,0.8,0.9,1.6,1.1c62.2,10.5,124.4,21,186.6,31.5c30.8,5.2,61.5,10.4,92.3,15.6c30.6,5.2,61.1,10.8,91.9,15
			c30.3,4.1,61.1,6.2,91.5,2.1c21.7-2.9,48.4-12,51.7-37.3C1768.3,976,1738.3,968.6,1732.9,947.1z"/>
		<linearGradient id="SVGID_4_" gradientUnits="userSpaceOnUse" x1="550.5755" y1="786.5479" x2="550.5755" y2="939.1353">
			<stop  offset="0" style="stop-color:#568CCC"/>
			<stop  offset="1" style="stop-color:#4274BC"/>
		</linearGradient>
		<path class="st8" d="M814.2,882.6c-7.1-21.6-14.4-46.4-32.3-61.7c-21.1-18.1-49-13.3-74.4-10.5c-23.5,2.6-50.1,1.2-63.2-21.4
			c-5.3-9.1-8.9-19.8-16.9-27c-8.9-8-20.8-8.7-31.8-5.2c-12.5,4-22.5,12.3-33.3,19.4c-11.1,7.3-24.9,14.5-38.4,9.1
			c-16.5-6.7-24.3-25.9-35.9-38.2c-5.4-5.8-12-10.5-20-11.6c-10.1-1.4-19.5,3.4-25.9,11c-18.2,21.7-7.1,50.1-12.1,75.2
			c-2.3,11.5-8.2,23.4-19.8,27.7c-11.7,4.3-24.5,0-36-2.5c-10.6-2.3-21.9-3.9-32.3,0.3c-9.4,3.9-16.3,11.9-21.1,20.7
			c-5.4,9.9-8.5,20.9-11.5,31.7c-4.3,15.3-8.5,30.7-12.8,46c-4.2,15.3-8.5,30.6-12.7,45.9c-1.1-1.3-2.1-2.6-3.2-3.9
			c-1.9-2.5-6.3,0-4.3,2.5c30.3,40,82.3,51.3,129.6,55.6c30.5,2.8,61.5,3.4,91.5,10.2c28.8,6.5,54.3,20.2,80.1,34.2
			c43.9,23.7,102.8,49.7,148.7,15.6c21.2-15.7,34.7-39.5,48.8-61.2c8.7-13.3,17.4-26.7,26-40c7.8-12,15.5-24.2,20.1-37.8
			C830.5,938.7,823,909.5,814.2,882.6z"/>
		<linearGradient id="SVGID_5_" gradientUnits="userSpaceOnUse" x1="953.3749" y1="571.8479" x2="953.3749" y2="871.1478">
			<stop  offset="0" style="stop-color:#568CCC"/>
			<stop  offset="1" style="stop-color:#4274BC"/>
		</linearGradient>
		<path class="st9" d="M1314.6,943.8c-16.6-18.4-43.2-24.2-64.7-34.9c-11.4-5.7-22.5-12.9-29.6-23.8c-8.1-12.4-10.8-27.5-13.8-41.8
			c-2.8-13.4-5.8-27.6-14.1-38.8c-8.6-11.8-21.6-17.6-35.8-19.5c-29.2-3.9-64.6,6.6-86.1-19.6c-16.8-20.6-21.2-52.7-47.6-64.7
			c-13.8-6.3-29.5-5.2-44.2-4.3c-15.4,1-32.5,2.7-46.3-5.5c-23.3-13.9-23.9-46.8-45.6-62.4c-11.7-8.4-26.5-8-39-1.9
			c-14.8,7.2-24.3,20.7-30.6,35.5c-12.8,30.3-15.6,72-50.9,85.5c-25.5,9.7-54.8,4.1-79.4,16.2c-12.5,6.1-21.1,17.4-23.9,31
			c-3.4,16.4,0.5,33.1,3.3,49.3c2.8,16,4.7,35.2-4.9,49.5c-9.6,14.4-27.9,16.8-43,21.9c-13,4.4-23.9,11.7-30.7,23.9
			c-6,10.7-8.3,23.5-6.8,35.7c1.5,12,6.8,23.3,16,31.4c1.8,1.6,4.2,0,4.3-1.8c0,0,0,0,0,0c77.2,23.8,156.4,40.7,236.5,50.5
			c80.8,9.9,162.6,12.6,243.9,8c40.1-2.3,80.1-6.3,119.8-12.2c19.2-2.8,38.6-5.5,57.5-10.2c16.6-4.2,33.4-10.6,46.4-22.2
			C1326.6,999.6,1335.1,966.6,1314.6,943.8z"/>
		<g>
			<path class="st10" d="M342.7,1583.7c0.7,1.6,2.3,5.8,2.3,5.8C344.9,1587.9,343.9,1585.8,342.7,1583.7z"/>
			<path class="st10" d="M241.5,910.4C241.5,910.3,241.5,910.3,241.5,910.4C242.6,908,244.7,901.6,241.5,910.4z"/>
			<path class="st10" d="M1668.3,1476.7c0.3-4.4,0.7-8.9,1.2-13.3c0.5-2.9,1-5.7,1.6-8.6c1-4.8,2.2-9.5,3.6-14.2
				c0.7-2.5,1.6-5,2.4-7.5c0.2-0.6,0.7-1.8,1.1-3c0.5-1.2,1.2-2.8,1.6-3.4c1.2-2.4,2.4-4.7,3.7-7c2.7-4.7,6-9,8.8-13.5
				c-0.5,0.8-1,1.5-1.4,2.2c0.5-0.7,1-1.4,1.5-1.9c1.9-2.1,3.8-4.2,5.8-6.2c4-4,8.2-7.9,12.6-11.5c0.4-0.3,1.4-1.2,2.5-2
				c1.2-0.9,2.9-2.2,3.5-2.6c5-3.6,10.1-7.1,15.2-10.6c20.8-14.1,42.2-28,60.2-45.7c20.7-20.3,36.4-46.2,43.2-74.5
				c7.4-31,5.9-62.6-0.3-93.6c-5.8-29-17.6-56.3-29.5-83.2c-5.8-13-11.8-25.9-17.4-39c-0.5-1.2-0.9-2.7-1.6-3.8
				c-1-2.4-1.9-4.7-2.9-7.1c-2.6-6.6-5-13.3-7.2-20c-4.2-12.9-7.3-26.1-9.5-39.5c0.1,0.7-0.5-3.3-0.6-4.5c-0.3-3-0.6-6.1-0.8-9.1
				c-0.3-4.7-0.5-9.5-0.6-14.2H227.7c-1.2,2.2-2.3,4.5-3.5,6.7c-24.5,46.4-54.1,89.8-79.3,135.7c-25,45.5-45.3,95.5-52.9,147
				c-8.2,55.1-4.4,111.3,23.3,160.9c22.9,41.1,60.6,70.5,99.8,95.1c17,10.6,34.4,20.4,51.5,30.8c8.6,5.2,17.1,10.4,25.3,16
				c3.8,2.5,7.5,5.1,11.2,7.8c0.5,0.3,0.9,0.7,1.4,1.1c1.3,1,2.6,2,3.8,3.1c7,5.8,13.6,12.1,19.7,18.8c1.3,1.5,2.6,3,3.9,4.6
				c2.5,3.6,4.9,7.2,7.1,10.9c0.8,1.4,2.2,3.4,3.5,5.6c0,0.1,0.1,0.2,0.1,0.4h0.1h1329.7c-1.7-24.5-4-49-4.6-73.5
				C1667.5,1499,1667.6,1487.9,1668.3,1476.7z"/>
			<path class="st10" d="M1690.9,1408.4C1689,1411,1687.4,1413.8,1690.9,1408.4L1690.9,1408.4z"/>
		</g>
		<g>
			<path class="st11" d="M244.1,1503.4h2.2c-0.7-0.4-1.4-0.8-2.2-1.3V1503.4z"/>
			<path class="st11" d="M241.5,910.4C241.5,910.3,241.5,910.3,241.5,910.4C242.6,908,244.7,901.6,241.5,910.4z"/>
			<path class="st11" d="M1838.9,1233.6c0.4-3.2,0.7-6.4,1-9.7H1701v-60.2h83.9v0.2h11.5v-0.2h39.4c-0.3-1.3-0.5-2.7-0.8-4
				c-0.4-1.9-0.8-3.8-1.2-5.6h-37.4v-60.2h16.7c-1.4-3.2-2.8-6.4-4.2-9.7H1701v-60.2h81.7c-1.2-3.2-2.4-6.4-3.5-9.7h-164.8v-75.1
				h-11.5v75.1h-170.6v-75.1h-11.5v75.1h-170.6v-75.1h-11.5v75.1H1068v-75.1h-11.5v75.1H885.8v-75.1h-11.5v75.1H703.7v-75.1h-11.5
				v75.1H521.6v-75.1h-11.5v75.1H339.5v-75.1H328v75.1H184.6c-2,3.2-3.9,6.4-5.9,9.7h53.8v60.2h-89c-1.7,3.2-3.5,6.4-5.1,9.7H328
				v60.2H111.5c-1.2,3.2-2.3,6.4-3.4,9.7h124.5v60.2H92.7c-0.3,1.6-0.5,3.2-0.7,4.8c-0.2,1.6-0.5,3.2-0.7,4.9H328v60.2H88.6
				c0.2,3.2,0.4,6.4,0.7,9.7h143.3v60.2H103.1c1.2,3.2,2.6,6.5,4,9.7H328v60.2H148.8c3.3,3.3,6.6,6.5,10.1,9.7h73.7v52.2
				c3.8,2.3,7.7,4.5,11.5,6.8v-59h170.6v60.2h-75.2H328h-81.8c5.5,3.2,10.9,6.4,16.3,9.7H328v49.2c0,0,0,0,0,0
				c1.3,1.5,2.6,3,3.9,4.6c2.5,3.6,4.9,7.2,7.1,10.9c0.1,0.2,0.3,0.5,0.5,0.8v-65.5h170.6v70.6h11.5v-70.6h170.6v70.6h11.5v-70.6
				h170.6v70.6h11.5v-70.6h170.6v70.6h11.5v-70.6h170.6v70.6h11.5v-70.6h170.6v70.6h11.5v-70.6h170.6v70.6h11.5v-70.6h53.6
				c0-1-0.1-1.9-0.1-2.9c-0.1-2.3-0.1-4.5-0.1-6.8h-53.4h-11.5h-83.9v-60.2h155c0.2-0.8,0.5-1.7,0.7-2.5c0.7-2.4,1.5-4.8,2.3-7.1
				h-62.6v-60.2h117.9c4.7-3.2,9.5-6.4,14.2-9.7H1701v-60.2h83.9v0.4h11.5v-0.4h16.3c2.2-3.1,4.2-6.4,6.2-9.7h-22.5v-60.2H1838.9z
				 M1784.9,1093.8v60.2h-170.6v-60.2H1784.9z M426.2,1163.7h83.9v0.2h11.5v-0.2h75.2v60.2H426.2V1163.7z M339.5,1154v-60.2h170.6
				v60.2H339.5z M1507.4,1163.7v60.2h-170.6v-60.2h83.9v0.2h11.5v-0.2H1507.4z M1432.2,1154v-60.2h170.6v60.2H1432.2z
				 M1420.7,1233.6v60.2h-170.6v-60.2H1420.7z M1420.7,1154h-170.6v-60.2h170.6V1154z M1325.3,1163.7v60.2h-170.6v-60.2h83.9v0.2
				h11.5v-0.2H1325.3z M1238.6,1233.6v60.2H1068v-60.2H1238.6z M1238.6,1154H1068v-60.2h170.6V1154z M1143.2,1163.7v60.2H972.6
				v-60.2h83.9v0.2h11.5v-0.2H1143.2z M1056.5,1233.6v60.2H885.8v-60.2H1056.5z M1056.5,1154H885.8v-60.2h170.6V1154z M961.1,1163.7
				v60.2H790.4v-60.2h83.9v0.2h11.5v-0.2H961.1z M874.3,1233.6v60.2H703.7v-60.2H874.3z M874.3,1154H703.7v-60.2h170.6V1154z
				 M778.9,1163.7v60.2H608.3v-60.2h83.9v0.2h11.5v-0.2H778.9z M692.2,1233.6v60.2H521.6v-60.2H692.2z M692.2,1154H521.6v-60.2
				h170.6V1154z M510.1,1233.6v60.2H339.5v-60.2H510.1z M426.2,1303.4h83.9v0.4h11.5v-0.4h75.2v60.2H426.2V1303.4z M521.6,1373.3
				h170.6v60.2H521.6V1373.3z M608.3,1363.7v-60.2h83.9v0.4h11.5v-0.4h75.2v60.2H608.3z M703.7,1373.3h170.6v60.2H703.7V1373.3z
				 M790.4,1363.7v-60.2h83.9v0.4h11.5v-0.4h75.2v60.2H790.4z M885.8,1373.3h170.6v60.2H885.8V1373.3z M972.6,1363.7v-60.2h83.9v0.4
				h11.5v-0.4h75.2v60.2H972.6z M1068,1373.3h170.6v60.2H1068V1373.3z M1154.7,1363.7v-60.2h83.9v0.4h11.5v-0.4h75.2v60.2H1154.7z
				 M1250.1,1373.3h170.6v60.2h-170.6V1373.3z M1336.8,1363.7v-60.2h83.9v0.4h11.5v-0.4h75.2v60.2H1336.8z M1432.2,1293.8v-60.2
				h170.6v60.2H1432.2z M1518.9,1223.9v-60.2h83.9v0.2h11.5v-0.2h75.2v60.2H1518.9z M1518.9,1023.9h83.9h11.5h75.2v60.2h-170.6
				V1023.9z M1336.8,1023.9h83.9h11.5h75.2v60.2h-170.6V1023.9z M1154.7,1023.9h83.9h11.5h75.2v60.2h-170.6V1023.9z M972.6,1023.9
				h83.9h11.5h75.2v60.2H972.6V1023.9z M790.4,1023.9h83.9h11.5h75.2v60.2H790.4V1023.9z M608.3,1023.9h83.9h11.5h75.2v60.2H608.3
				V1023.9z M426.2,1023.9h83.9h11.5h75.2v60.2H426.2V1023.9z M244.1,1084.1v-60.2H328h11.5h75.2v60.2H244.1z M244.1,1223.9v-60.2
				H328v0.2h11.5v-0.2h75.2v60.2H244.1z M244.1,1363.7v-60.2H328v0.4h11.5v-0.4h75.2v60.2H244.1z M339.5,1433.5v-60.2h170.6v60.2
				H339.5z M596.8,1503.4h-75.2h-11.5h-83.9v-60.2h170.6V1503.4z M778.9,1503.4h-75.2h-11.5h-83.9v-60.2h170.6V1503.4z
				 M961.1,1503.4h-75.2h-11.5h-83.9v-60.2h170.6V1503.4z M1143.2,1503.4H1068h-11.5h-83.9v-60.2h170.6V1503.4z M1325.3,1503.4
				h-75.2h-11.5h-83.9v-60.2h170.6V1503.4z M1507.4,1503.4h-75.2h-11.5h-83.9v-60.2h170.6V1503.4z M1602.8,1433.5h-170.6v-60.2
				h170.6V1433.5z M1689.5,1363.7h-170.6v-60.2h83.9v0.4h11.5v-0.4h75.2V1363.7z M1784.9,1293.8h-170.6v-60.2h170.6V1293.8z"/>
		</g>
		<g>
			<g>
				<path class="st12" d="M342.7,1583.7c0.7,1.6,2.3,5.8,2.3,5.8C344.9,1587.9,343.9,1585.8,342.7,1583.7z"/>
				<path class="st12" d="M344.2,1588c1.2,3.2,2.2,6.5,3.1,9.8c0.7,2.7,1.4,5.5,1.9,8.3c0.2,0.8,0.3,1.6,0.4,2.4
					c-0.2,6.1,1.2,12.7,1.3,18.8c0.5,27-3.3,53.9-3.5,80.9c-0.2,31.3,5.1,61.8,19,89.9c24.1,48.9,75.1,82,126.4,96.3
					c59.9,16.7,122.4,9.1,182.9,1c62.1-8.3,124.1-16.7,186.2-25c11.4-1.5,22.8-3.1,34.2-4.6c85.9-11.5,172.9-10.7,258.7,1.6
					c45.7,6.6,91.7,11.1,137.7,13.8c61.8,3.5,124.8,5.1,185.6-7.8c53.2-11.3,106.9-37.4,142.9-79.2c36-41.8,51-92.5,53.1-147
					c0.8-21.2-0.2-42.3-1.7-63.5H342.7c1.2,2.1,2.2,4.2,2.3,5.8c0,0-1.6-4.2-2.3-5.8l-0.1,0c0.1,0.3,0.3,0.7,0.5,1.3
					C343.5,1586,343.9,1587,344.2,1588z"/>
			</g>
		</g>
		<path class="st13" d="M1214.9,1743.5c-5.5-16-18.1-28.4-33.5-35.2c-17.9-7.9-37.3-8.8-56.6-7.9c-20.1,0.9-40.1,2.2-60.2,3.4
			c-23.1,1.4-46.2,2.8-69.3,4.3c-25.5,0.2-51,0.2-76.5-0.3c-20.4-0.3-40.7-1-61.1-1.7c-18.7-0.6-38.1,0.1-55.2,8.7
			c-14.6,7.4-27.1,21.9-29.6,38.4c-2.7,18.1,6.2,34.4,20.2,45.4c28.4,22.5,67,29,102.3,29.7c38.4,0.8,76.5-5.9,114.8-6.1
			c19.3-0.1,38.1,2.2,57.1,5.6c19,3.4,38.2,7.2,57.6,7.1c33.6-0.1,70.6-12.5,85.7-45C1217.3,1775.7,1220.1,1758.9,1214.9,1743.5z
			 M1191.4,1756.5C1191.6,1757.6,1191.5,1757,1191.4,1756.5L1191.4,1756.5z"/>
		<g>
			<g>
				<path class="st6" d="M849.1,1464.7l-133.4-19.5c-6.4-0.9-10.7-6.8-9.8-13.2l16-109.8c0.9-6.4,6.8-10.7,13.2-9.8l133.4,19.5
					c6.4,0.9,10.7,6.8,9.8,13.2l-16,109.8C861.3,1461.3,855.4,1465.7,849.1,1464.7z"/>
				<path class="st14" d="M758.6,1451.5l44.7,6.5c7.4-44.1,14.8-88.2,22.1-132.3l-44.7-6.5C773.3,1363.3,765.9,1407.4,758.6,1451.5z
					"/>
			</g>
			<path class="st6" d="M761,1343.7c-9.1-20.2,11-42.2,15.6-61.1c5.4-22.5-5.9-42.7-10.2-64.2c-4.6-22.7-1.2-46.3,4.7-68.5
				c5.5-20.4,12.3-41.7,21.9-60.6c8-15.8,21.5-30.7,41-24.6c20.3,6.4,28.5,28.5,29.5,48c1.2,23.7-4.5,47.4-6.2,70.9
				c-1.7,24.2-1.5,48.4,0.5,72.6c2.1,24.4,5.5,50-6.7,72.4c-9.7,17.7-24.9,34.7-22.3,56.3c1.1,8.9,15.2,9,14.1,0
				c-2.6-21.2,15.5-37.7,23.6-55.8c9.8-22,7.8-46,5.7-69.3c-2.3-26.8-2.7-53.6-0.5-80.4c2-25,8.4-50.4,5.1-75.5
				c-2.8-20.7-12.9-41.2-32.6-50.4c-18.5-8.6-38.8-4-52.1,11.3c-13.9,16-20.6,37.8-27.4,57.4c-8,23.3-14.4,47.7-14.6,72.6
				c-0.1,13.9,2.1,27.6,6.1,40.8c4.1,13.5,9.9,27.6,6.9,41.9c-2.6,12.5-10,23.4-14.4,35.3c-4.6,12.5-5.6,25.5,0,37.8
				C752.5,1359.1,764.7,1351.9,761,1343.7L761,1343.7z"/>
			<path class="st15" d="M1167.1,591.5c-3.2-2.2-6.7-3.8-9.9-6c-5.5-3.8-6.1-8.5-5.5-14.8c0.7-7.8,0.9-14.4-2.9-21.5
				c-8.4-15.9-35.8-26-32.7-46.8c0.1-0.8,0-1.6-0.3-2.2c-0.1-3.2-5.6-4.2-7.1-0.5c-11.3,29.2-51,35.6-59.5,66.9
				c-3.3,12.1-0.8,25.1,9.3,33.2c6,4.8,12.8,7.8,17.4,14.3c4.7,6.5,7.7,14,12.5,20.5c16.6,22.6,49.3,36.5,74.8,19.4
				C1184.2,639.7,1189.5,607.3,1167.1,591.5z"/>
			<path class="st15" d="M1133.4,426.8c-6.8-13.7-20.6-22.1-35.5-23.5c-3.1-0.3-4,2.8-3,5c-4.2,16.4-2.8,33.6,4.4,49
				c5.5,11.6,18.1,27.2,30.4,13.1C1139.7,458.8,1140,440,1133.4,426.8z"/>
			<path class="st16" d="M1042.7,559.7c0,0-12.5,1.1-14.1,6.2s23.1,32,23.1,32l51,2.6l15.9-22.8
				C1118.6,577.7,1104,570.1,1042.7,559.7z"/>
			<linearGradient id="SVGID_6_" gradientUnits="userSpaceOnUse" x1="1038.322" y1="854.3007" x2="1044.1296" y2="548.3173">
				<stop  offset="0" style="stop-color:#FF905E"/>
				<stop  offset="1" style="stop-color:#ED7648"/>
			</linearGradient>
			<path class="st17" d="M1039.9,535.3c0,0,11,46.6-10.5,58.8c-21.5,12.3-54.5,19.8-54.5,19.8s7.5,51.1,11.7,85.8
				c4.2,34.6,22,43.1,31.2,70.7c9.2,27.6,0.2,49.9-9,61.5c-13.2,16.6-67.4,106.8-56.8,202.2s16.3,119.9,5.9,149.1
				c-7.7,21.8-35.6,115.5-34.2,177.7c1.4,62.2,5.7,248.2,1.4,264.5s-22.6,94-43.8,114.6c0,0-12.7,26.9,0,32.5
				c12.7,5.7,52.3,2.1,55.9,0s0.7-46.7,9.2-58.7c8.5-12,24-10.6,19.8-33.2c-4.2-22.6-16-60.1-7-118.1c9.1-58,72-334.5,79.8-369.8
				s41-265.3,41-265.3s-13.7,210.6-11.8,264.4c1.9,53.7-32.1,120.7-31.1,198s19.8,215.9,7.5,237.6s-33,50.9-25.5,63.2
				c7.5,12.3,52.8,12.3,60.8,42.4s16.5,42.4,81.6,33.9c0,0,18.9-12.3-16-34.9c-34.9-22.6-65.1-47.1-63.2-109.4
				c1.9-62.2,58.5-407.3,59.4-419.6c0.9-12.3,62.2-211.1,31.1-296.9c-31.1-85.8-34.9-57.5-34.9-110.3c0-43.5,30.8-62.9,25.1-98.8
				c-5.7-35.8-8.1-88.9-22.3-92.6s-48.7,0-48.9-34.4c-0.2-34.4-7.7-69.3-7.7-69.3L1039.9,535.3z"/>
			<path class="st15" d="M1161.5,1766.9c0,0,18.9-12.3-16-34.9c-34.9-22.6-65.1-47.1-63.2-109.4c0.2-7.2,1.2-18.1,2.7-31.8
				l-36.3-3.8c0.3,19.7-0.7,34.4-4.1,40.3c-12.3,21.7-33,50.9-25.5,63.2c7.5,12.3,52.8,12.3,60.8,42.4
				C1087.9,1763.1,1096.4,1775.4,1161.5,1766.9z"/>
			<path class="st15" d="M926.6,1591.4l-0.2,16.3c-0.3,9.1-0.7,15.3-1.4,17.8c-4.2,16.3-22.6,94-43.8,114.6c0,0-12.7,26.9,0,32.5
				c12.7,5.7,52.3,2.1,55.9,0c3.5-2.1,0.7-46.7,9.2-58.7c8.5-12,24-10.6,19.8-33.2c-3-16.1-9.9-39.7-10.3-72.9l0.6-21
				C946,1593.8,926.6,1591.4,926.6,1591.4z"/>
			<path class="st18" d="M1140.7,604.5c0,0,35.4-3.8,36.8,35.8c1.4,39.6-2.4,149.2,4.1,174.7s16.1,90.5,0,147.1
				c-16.1,56.6-116.5-50.2-116.5-50.2s17.5-84.1,26.8-103.2s27.7-79.9,34-97.6S1140.7,604.5,1140.7,604.5z"/>
			<path class="st14" d="M1140.7,604.5c0,0,35.4-3.8,36.8,35.8c1.4,39.6-2.4,149.2,4.1,174.7s16.1,90.5,0,147.1
				c-16.1,56.6-116.5-50.2-116.5-50.2s17.5-84.1,26.8-103.2s27.7-79.9,34-97.6S1140.7,604.5,1140.7,604.5z"/>
			<path class="st18" d="M974.8,613.9c0,0-30.2,0.9-32.1,34.9c0,0-5.7,169.7-15.6,179.6c-9,9-62.4,111.5-79.5,161.9
				c-3,8.9-7.4,17.2-13.2,24.6c-10.2,13.2-25.3,35.4-25.1,51.8c0.1,8.9,49.1,41,53.4,19.1c4.2-21.9,2.1-62.2,6.4-75.7
				c4.2-13.4,102.3-155.6,105.6-168.3c3.3-12.7,19.5-138.3,19.5-138.3l23.4-54.8L974.8,613.9z"/>
			<linearGradient id="SVGID_7_" gradientUnits="userSpaceOnUse" x1="1130.719" y1="495.519" x2="1015.2028" y2="461.1035">
				<stop  offset="0" style="stop-color:#FF905E"/>
				<stop  offset="1" style="stop-color:#ED7648"/>
			</linearGradient>
			<path class="st19" d="M1126.2,462.9c-0.4-41.9-36.6-55.2-36.6-55.2c-89,10.3-75.9,76.1-63.6,111.4c12.3,35.3,53.3,35.2,75.5,36.4
				c15.5,0.8,23.5-17.2,23.1-42.3c2.9-0.5,13.2-4.9,13.1-8c0-2.3-8.2-13.2-12.5-19.8c-1.5-2.2-2.1-4.9-1.7-7.5
				C1124.3,472.9,1126.2,467.7,1126.2,462.9z"/>
			<path class="st20" d="M988.8,864.6l8,5.8l49.1,6.9l106.7-20.5c-12.8-27-14.8-22.9-14.8-61c0-43.5,30.8-62.9,25.1-98.8
				c-5.7-35.8-8.1-88.9-22.3-92.6c-10.4-2.8-32-1.5-42.7-14.4h0c-32.7,22.3-63.7,0-63.7,0l0,0c-1.4,1.6-3.1,3-5,4.1
				c-21.5,12.3-54.5,19.8-54.5,19.8s7.5,51.1,11.7,85.8c4.2,34.6,22,43.1,31.2,70.7c9.2,27.6,0.2,49.9-9,61.5
				C1004.8,836.9,997.3,848.4,988.8,864.6z"/>
			<linearGradient id="SVGID_8_" gradientUnits="userSpaceOnUse" x1="1045.9875" y1="1332.9598" x2="1045.9875" y2="975.4724">
				<stop  offset="0" style="stop-color:#253463"/>
				<stop  offset="1" style="stop-color:#152447"/>
			</linearGradient>
			<path class="st21" d="M1172.8,906.2c-19.1-52.8-27.9-62.4-31.9-74.2c-92.3,37.5-132.2,0-132.2,0
				c-13.2,16.6-67.4,106.8-56.8,202.2s16.3,119.9,5.9,149.1c-6.9,19.6-30.2,97.4-33.8,158.1l-0.4,5.6c-0.2,2.1-0.3,4.2-0.3,6.3
				c-0.6,26.9-7.6,238.8-12.9,240.1c0,0,11.9,12.2,38.9,7.2c2.1-0.3,4.3-0.8,6.6-1.5c0.2-11.2,1.2-23.4,3.3-36.7
				c9.1-58,72-334.5,79.8-369.8s37.9-214.1,37.9-214.1s-10.5,159.5-8.6,213.2c1.9,53.7-32.1,120.7-31.1,198
				c0.2,15.2,1.1,32.7,2.3,51.2c1.3,60.7,2.2,144.5-1.6,160.2c0,0,26.8,12.5,45.9,2.8c8.8-93.8,57.2-389.6,58.1-400.9
				C1142.6,1190.8,1203.9,992,1172.8,906.2z"/>
			<path class="st22" d="M989.5,653c49.6,8.6,102.8,16.7,149.2-8.4c8-4.3,0.9-16.5-7.1-12.2c-42.7,23.1-92.7,14.9-138.3,7
				C984.4,637.8,980.5,651.5,989.5,653L989.5,653z"/>
			<path class="st22" d="M1003.5,694.4c27.6,2,55.2,1.8,82.8-0.9c22.2-2.2,46.1-4.5,63.2-20.4c6.7-6.2-3.3-16.2-10-10
				c-15.7,14.7-41.2,15.3-61.4,16.9c-24.8,2-49.7,2-74.5,0.2C994.5,679.6,994.5,693.7,1003.5,694.4L1003.5,694.4z"/>
			<path class="st22" d="M1016.6,732.2c25.8,3.2,51.9,3.4,77.7,0.3c19.6-2.3,42.9-4.4,55-22.1c5.1-7.5-7.1-14.6-12.2-7.1
				c-4.8,7-13.2,9.7-21.1,11.6c-10.7,2.5-21.7,3.7-32.6,4.7c-22.3,1.9-44.7,1.3-66.8-1.4C1007.6,717,1007.7,731.1,1016.6,732.2
				L1016.6,732.2z"/>
			<path class="st22" d="M1022,771.6c23.7,5.9,48.2,8.2,72.5,6.1c18.1-1.6,42.2-3.5,52-21.5c4.3-8-7.9-15.1-12.2-7.1
				c-3.8,7-11.1,9.6-18.5,11.3c-9.5,2.2-19.4,3.2-29.1,3.7c-20.5,1-40.9-1.1-60.9-6.1C1016.9,755.7,1013.1,769.3,1022,771.6
				L1022,771.6z"/>
			<path class="st22" d="M1033.4,812c20.4,2.7,40.9,3.3,61.3,1.2c16.3-1.6,36.8-2.9,43-23c2.7-8.6-9.6-12.3-12.3-3.8
				c-2.5,8.1-11.3,9.9-18,11.1c-8.2,1.4-16.6,2.1-24.9,2.5c-16.4,0.8-32.8,0-49.1-2.1C1025.3,796.8,1025.4,810.9,1033.4,812
				L1033.4,812z"/>
			<path class="st14" d="M1181.6,909.9c-22-88.6-36.7-65.7-36.7-118.5c0-43.5,23.8-58.5,18.1-94.4c-5.7-35.8-8.1-88.9-22.3-92.6
				c-5.8-1.5-15-1.8-23.9-4c0.1,0.5,18.6,74.9,6.4,133.2c-12.3,58.4,4.8,130.1,14.7,183.8s-30.6,203.9-5.2,211.2
				c9.8,2.8,50.8,8,57.8,9.5C1182,1077.8,1198.6,978.6,1181.6,909.9z"/>
			<path class="st14" d="M1017.7,683.7c-12.2-31.1-1.4-83.2-1.4-83.2c-19.7,8.4-41.5,13.4-41.5,13.4s-30.2,0.9-32.1,34.9
				c0,0-5.7,169.7-15.6,179.6c-3.1,3.1-11.6,17.6-22.1,37.2c-8.8,14.1-17.7,28.3-26.5,42.4c-8.5,13.5-16.9,27.1-25.4,40.6
				c-5,8-12.9,19.1-6,28.4c2.4,3.3,6.2,4.8,10,5.7c2.5,0.6,5.1,0.8,7.5,1.6c4.3,1.6,6.6,4.6,9.2,8.2c5.1,7.1,13.5,15.6,22.7,9.3
				c3.6-2.5,5.6-6.6,7.7-10.3c3.8-6.9,7.6-14,11.2-21c6.5-12.7,12.6-25.5,18.5-38.4c10.9-23.8,20.9-48,30.9-72.2
				c5.7-9.2,9.4-15.8,10-18.1c2.5-9.5,13.6-57.2,18.3-93.3c5,15.5,4.8,11.7,11.3,31.1c9.2,27.6,1.6,45.2-7.5,56.8
				c-13.2,16.6-69.1,103.5-58.5,198.9c6.1,55.3-5.7,83.9-13.2,102.8c8.9,0.9,59.3,5.2,75.4,0c37.3-12.1-13.2-126.4,32.1-237.7
				C1078,789.3,1029.9,714.8,1017.7,683.7z"/>
			<linearGradient id="SVGID_9_" gradientUnits="userSpaceOnUse" x1="1070.9155" y1="554.1837" x2="1070.9155" y2="596.092">
				<stop  offset="0" style="stop-color:#DD4A63"/>
				<stop  offset="1" style="stop-color:#CC2348"/>
			</linearGradient>
			<path class="st23" d="M1023.2,571.7c0,0,3.6-13.4,13.3-8.5c9.7,4.9,17.5,18,28.6,19.8c11.1,1.8,38-7.8,42.9-10.8
				c5-3,10.6,5.5,10.6,5.5l-22.3,27.8l-44.6,2.3L1023.2,571.7z"/>
			<polygon class="st15" points="966.4,1691.5 959.6,1772.7 946.9,1772.7 946.9,1701.5 			"/>
			<polygon class="st15" points="1017.5,1685.4 1020,1769.5 1039.1,1770.5 1045.7,1693.7 			"/>
			<circle class="st24" cx="1084.3" cy="869.1" r="7.8"/>
			<linearGradient id="SVGID_10_" gradientUnits="userSpaceOnUse" x1="1133.8474" y1="616.0971" x2="1006.1314" y2="578.0469">
				<stop  offset="0" style="stop-color:#DD4A63"/>
				<stop  offset="1" style="stop-color:#CC2348"/>
			</linearGradient>
			<path class="st25" d="M1023.2,571.7c-9.8-1.4-20.9,15-21.9,23.3c-1,8.4-2.8,13.4,11,23.3s39.5,13.4,51.3,19.8
				c7.5,4.1,31.9,9.2,43.9-8.5s33.7-15.8,30.3-33.2c-1.8-9.3-3.6-32.5-18.8-24.7s-15.9,19.1-41.3,21.9
				C1052.2,596.4,1038.1,573.8,1023.2,571.7z"/>
			<path class="st26" d="M1101.3,407.4c0.3-1.3-0.1-2.6-1.8-3.3c-0.4-0.2-0.8-0.3-1.2-0.5c-0.4-0.3-0.9-0.5-1.4-0.5
				c-25.1-9.8-54.1-7.7-76.9,7.1c-22.3,14.5-36.2,40.2-37.4,66.6c-0.7,15.9,8.4,34.4-1.4,48.6c-7.3,10.6-19.7,20.3-13.9,34.7
				c2.8,6.9,9.4,12.3,6.4,20.3c-3,8.1-12.5,11.7-18.3,17.4c-7.5,7.4-11.1,20-1.6,27.3c4.2,3.3,9.6,4.3,14.6,5.8
				c3,0.9,6.2,1.7,8.6,3.7c3.3,2.8,3.4,7.1,5.5,10.6c5.4,9.1,20.2,9.7,27.3,2.4c0.1-0.2,0.3-0.3,0.4-0.5c2.1-1.9,1.4-6.3-2.2-6.2
				c-0.7-0.5-1.4-1-2-1.5c-2.4-0.7-2.8-2.1-1.2-4.1c0.6-3,2.2-3.9,4.8-5c2.7-1.2,5.6-1.4,8.6-1.5c4.9-0.3,10,0,14.8-1.5
				c7.3-2.2,12-8,13.3-15.4c1.6-9.4-2-18-4.5-26.8c-1.8-6.3-2.7-12.7,0.2-18.8c2.6-5.4,7.2-9.8,11.3-14c6.3-6.4,12.9-13.6,14.2-22.9
				c1.5-10.4-5.1-18.5-8.7-27.7c-7-17.9,9.4-20.7,22.1-25.7c7.9-3.1,14.7-8.4,19.7-15.1C1112.7,445,1112.1,423.6,1101.3,407.4z"/>
		</g>
	</g>
</g>
</svg>
